<svg width="24" height="24" viewBox="0 0 24 24" fill="none" xmlns="http://www.w3.org/2000/svg">
<path d="M9.86999 5.67L6.44999 7.75L4.88999 5.19C4.61646 4.7359 4.53339 4.19212 4.65888 3.67707C4.78436 3.16202 5.10824 2.71739 5.55999 2.44C6.01409 2.16646 6.55787 2.08339 7.07292 2.20888C7.58798 2.33437 8.0326 2.65824 8.30999 3.11L9.86999 5.67ZM11.82 9.16L8.65999 11.08C7.80338 11.5957 7.17236 12.415 6.89255 13.3749C6.61274 14.3348 6.70465 15.3648 7.14999 16.26L9.19999 20.44C9.85999 21.79 11.46 22.26 12.74 21.47L19.17 17.56C20.46 16.78 20.77 15.15 19.88 13.94L17.11 10.2C15.91 8.58 13.66 8.04 11.82 9.16Z" stroke="black" stroke-width="1.5" stroke-linecap="round" stroke-linejoin="round"/>
<path d="M14.31 16.81L15.96 19.52M11.75 18.37L13.4 21.08M16.87 15.25L18.52 17.96M10.757 5.09801L5.63202 8.21801L7.71202 11.635L12.837 8.51501L10.757 5.09801Z" stroke="black" stroke-width="1.5" stroke-linecap="round" stroke-linejoin="round"/>
</svg>
