<svg width="44" height="44" viewBox="0 0 44 44" fill="none" xmlns="http://www.w3.org/2000/svg">
<path d="M22.3346 23.4449C22.1676 23.4569 21.9998 23.4426 21.8323 23.4427V23.4427C21.6661 23.4428 21.4997 23.457 21.3339 23.4454C19.6595 23.3275 18.0841 22.595 16.9136 21.3838C15.6852 20.1126 14.999 18.4136 15 16.6458C15 12.875 18.0416 9.81251 21.8333 9.81251C23.6238 9.8094 25.3438 10.51 26.6225 11.7633C27.9012 13.0167 28.6362 14.7223 28.669 16.5125C28.7018 18.3027 28.0298 20.0341 26.7978 21.3334C25.6237 22.5717 24.0307 23.323 22.3346 23.4449ZM34.826 34.4041C35.8783 35.9881 35.0802 38.0154 33.5077 39.0848C30.0843 41.4127 26.0194 42.6741 21.8333 42.6667C17.5043 42.6667 13.4947 41.3493 10.166 39.0869C8.59005 38.0157 7.78853 35.9846 8.84441 34.3983C9.46345 33.4684 10.3444 32.5969 11.4791 31.8333C17.1875 28.0417 26.5208 28.0417 32.1875 31.8333C33.3245 32.5984 34.2068 33.472 34.826 34.4041Z" stroke="black" stroke-width="1.5" stroke-linecap="round" stroke-linejoin="round"/>
<path d="M21.8333 42.6667C33.3396 42.6667 42.6667 33.3396 42.6667 21.8333C42.6667 10.3271 33.3396 1 21.8333 1C10.3271 1 1 10.3271 1 21.8333C1 33.3396 10.3271 42.6667 21.8333 42.6667Z" stroke="black" stroke-width="1.5" stroke-linecap="round" stroke-linejoin="round"/>
</svg>
